<svg xmlns="http://www.w3.org/2000/svg" width="48" height="48" viewBox="0 0 48 48" fill="none">
  <!-- Calendar body -->
  <rect x="4" y="8" width="28" height="32" rx="4" fill="#2563eb" />
  <!-- Calendar header bar -->
  <rect x="4" y="8" width="28" height="10" rx="4" fill="#1d4ed8" />
  <!-- Calendar rings -->
  <rect x="12" y="5" width="3" height="8" rx="1.5" fill="#1e40af" />
  <rect x="21" y="5" width="3" height="8" rx="1.5" fill="#1e40af" />
  <!-- Calendar grid dots (events) -->
  <circle cx="12" cy="24" r="2" fill="#bfdbfe" />
  <circle cx="18" cy="24" r="2" fill="#bfdbfe" />
  <circle cx="24" cy="24" r="2" fill="#bfdbfe" />
  <circle cx="12" cy="30" r="2" fill="#bfdbfe" />
  <circle cx="18" cy="30" r="2" fill="#60a5fa" />
  <circle cx="24" cy="30" r="2" fill="#bfdbfe" />
  <circle cx="12" cy="36" r="2" fill="#bfdbfe" />
  <circle cx="18" cy="36" r="2" fill="#bfdbfe" />
  <!-- Arrow (transfer/export) -->
  <path d="M30 28 L42 28 L42 24 L48 30 L42 36 L42 32 L30 32 Z" fill="#f59e0b" />
</svg>
